<svg width="97" height="10" fill="none" xmlns="http://www.w3.org/2000/svg"><g clip-path="url(#a)"><path d="M2.82 7.632a.436.436 0 0 1 .303-.121h10.475c.191 0 .287.224.151.356L11.68 9.878a.436.436 0 0 1-.303.122H.902C.71 10 .615 9.775.75 9.644l2.07-2.012Z" fill="url(#b)"/><path d="M2.818.122A.448.448 0 0 1 3.122 0h10.475c.191 0 .287.225.152.356l-2.07 2.012a.436.436 0 0 1-.303.122H.9c-.192 0-.287-.225-.152-.357L2.819.122Z" fill="url(#c)"/><path d="M11.68 3.853a.436.436 0 0 0-.303-.122H.902c-.192 0-.287.225-.152.356L2.82 6.1c.078.077.187.122.303.122h10.475c.191 0 .287-.225.151-.356L11.68 3.853Z" fill="url(#d)"/></g><path d="M23.262 5.968h4.305c.605 0 1.096.472 1.096 1.048 0 .576-.49 1.048-1.096 1.048h-5.193a.336.336 0 0 0-.219.079L20.59 9.429c-.24.199-.094.571.219.571h6.497s.005 0 .005-.005.005-.005.005-.005c.084.005.162.01.25.01 1.723 0 3.122-1.336 3.122-2.984 0-1.564-1.258-2.85-2.865-2.974 0 0-.006 0-.006-.005s0-.005-.005-.005h-4.634c-.605 0-1.096-.472-1.096-1.048 0-.58.49-1.048 1.096-1.048h5.182c.084 0 .167-.03.23-.084L30.046.566c.23-.199.078-.566-.23-.566h-6.633c-1.722 0-3.12 1.336-3.12 2.984 0 1.649 1.398 2.984 3.12 2.984h.079ZM47.895 0a.328.328 0 0 0-.333.327v9.346c0 .178.15.327.334.327h7.736c.092 0 .18-.04.246-.104l.968-1.007c.2-.208.051-.546-.246-.546h-6.753a.328.328 0 0 1-.333-.327V.327A.331.331 0 0 0 49.181 0h-1.285Z" fill="#fff"/><path fill-rule="evenodd" clip-rule="evenodd" d="M35.633 0c0 .005-.006.005 0 0-.984.045-1.775.815-1.82 1.773v6.374c0 .999.805 1.813 1.82 1.853h6.984c1.01-.045 1.82-.86 1.82-1.853V1.778c-.04-.958-.83-1.733-1.814-1.773h-6.99V0Zm1.3 1.778a1.177 1.177 0 0 0-1.137 1.118v4.01c0 .625.505 1.142 1.137 1.167h4.38a1.178 1.178 0 0 0 1.136-1.168V2.896a1.181 1.181 0 0 0-1.137-1.118h-4.38ZM67.557 9.667c0 .18.142.328.317.328h1.247a.32.32 0 0 0 .317-.328V1.851c0-.997-.765-1.811-1.72-1.851H61.235c-.994 0-1.797.829-1.797 1.856v7.816c0 .18.14.328.316.328h1.247a.32.32 0 0 0 .317-.328v-3.22c0-.18.14-.328.316-.328h5.621a.32.32 0 0 1 .317.328v3.215h-.015Zm-6.254-5.325V2.734c0-.625.492-1.131 1.096-1.131h4.062c.604 0 1.096.506 1.096 1.131v1.608a.323.323 0 0 1-.316.328H61.62a.32.32 0 0 1-.317-.328ZM94.742 10a.319.319 0 0 1-.313-.328v-3.22a.322.322 0 0 0-.313-.328h-5.621a.319.319 0 0 0-.314.328v3.22c0 .18-.14.328-.313.328h-1.242a.319.319 0 0 1-.314-.328V1.856C86.313.834 87.118 0 88.11 0h6.484c.954.045 1.72.859 1.72 1.851v7.816c0 .18-.14.328-.314.328h-1.257V10Zm-6.565-7.26v1.607c0 .18.14.328.313.328h5.621a.319.319 0 0 0 .313-.328V2.74c0-.625-.491-1.131-1.093-1.131h-4.06c-.603 0-1.094.506-1.094 1.131Z" fill="#fff"/><path d="M74.418 0c.098 0 .191.04.253.114l5.933 6.787c.201.228.589.09.589-.213V.328c0-.18.15-.328.336-.328h1.323a.33.33 0 0 1 .335.327v9.34c0 .18-.15.328-.335.328h-1.644c-.005 0-.01-.005-.01-.01s0-.005-.005-.01l-6.036-6.738c-.202-.228-.59-.084-.59.214v6.222c0 .178-.15.327-.335.327h-1.334a.33.33 0 0 1-.335-.327V.327c0-.178.15-.327.335-.327h1.52Z" fill="#fff"/><defs><linearGradient id="b" x1="12.597" y1="-1.202" x2="5.664" y2="12.458" gradientUnits="userSpaceOnUse"><stop stop-color="#00FFA3"/><stop offset="1" stop-color="#DC1FFF"/></linearGradient><linearGradient id="c" x1="9.426" y1="-2.81" x2="2.494" y2="10.849" gradientUnits="userSpaceOnUse"><stop stop-color="#00FFA3"/><stop offset="1" stop-color="#DC1FFF"/></linearGradient><linearGradient id="d" x1="11.002" y1="-2.011" x2="4.069" y2="11.648" gradientUnits="userSpaceOnUse"><stop stop-color="#00FFA3"/><stop offset="1" stop-color="#DC1FFF"/></linearGradient><clipPath id="a"><path fill="#fff" transform="translate(.688)" d="M0 0h13.125v10H0z"/></clipPath></defs></svg>